<svg xmlns="http://www.w3.org/2000/svg" width="1024" height="1024" viewBox="0 0 1024 1024">
  <circle cx="512" cy="512" r="512" fill="white"/>
  <g transform="scale(0.8) translate(128, 128)">
    <path d="M 457.00 833.32 C392.44,826.70 329.69,796.25 282.50,748.62 C241.34,707.08 211.00,651.03 200.64,597.42 C196.68,576.90 195.66,565.92 195.70,544.00 C195.75,508.09 201.60,475.82 214.05,442.75 C218.52,430.86 225.90,414.63 228.14,411.72 C229.40,410.09 233.85,414.09 279.74,458.07 C320.98,497.59 329.80,506.50 329.05,507.90 C327.21,511.35 323.98,526.07 322.90,535.99 C320.47,558.40 326.19,586.16 338.27,610.50 C360.04,654.38 404.89,690.49 450.87,701.14 C456.55,702.45 464.81,703.32 475.00,703.68 C492.97,704.31 504.24,702.79 518.00,697.90 C522.67,696.23 527.00,694.79 527.60,694.69 C528.21,694.58 551.71,716.33 579.82,743.00 C625.96,786.78 630.77,791.63 629.22,792.87 C625.86,795.56 593.32,810.85 581.39,815.35 C558.69,823.91 534.86,829.75 511.37,832.50 C499.77,833.85 467.03,834.35 457.00,833.32 Z" fill="rgba(0,0,0,1)"/>
    <path d="M 629.36 701.41 C604.14,677.44 583.37,657.48 583.22,657.07 C583.00,656.48 729.34,501.64 749.91,480.70 L 754.63 475.90 L 800.56 519.54 C825.83,543.54 846.64,563.57 846.82,564.04 C847.08,564.76 676.46,745.00 675.52,745.00 C675.36,745.00 654.59,725.39 629.36,701.41 ZM 475.50 607.37 C452.62,603.84 431.96,586.72 424.33,564.98 C420.87,555.09 420.06,541.25 422.41,532.00 C426.50,515.88 422.84,520.17 515.97,422.31 C562.97,372.91 601.96,332.50 602.61,332.50 C603.26,332.50 623.42,351.14 647.42,373.93 L 691.05 415.37 L 687.63 418.93 C685.75,420.89 647.04,461.65 601.59,509.50 C512.94,602.84 515.37,600.53 501.00,605.06 C494.60,607.08 481.38,608.27 475.50,607.37 ZM 320.25 407.49 C295.09,383.56 274.39,363.64 274.25,363.24 C274.07,362.72 417.78,210.67 444.36,183.25 C445.32,182.26 455.13,191.09 491.54,225.72 C516.82,249.77 537.50,269.97 537.50,270.61 C537.50,271.84 368.04,450.79 366.75,450.92 C366.34,450.97 345.41,431.42 320.25,407.49 Z" fill="rgba(254,207,0,1)"/>
  </g>
</svg>
