<svg xmlns="http://www.w3.org/2000/svg" width="1024" height="1024" viewBox="0 0 1024 1024">
<g>
<path d="M 140.68 531.34 C140.30,530.97 140.00,500.59 140.00,463.83 L 140.00 397.00 L 228.00 397.00 L 228.00 416.00 L 164.00 416.00 L 164.00 453.00 L 219.00 453.00 L 219.00 471.00 L 164.00 471.00 L 164.00 513.00 L 229.08 513.00 L 228.79 522.25 L 228.50 531.50 L 184.93 531.76 C160.96,531.90 141.05,531.72 140.68,531.34 ZM 502.58 530.58 C488.56,524.68 481.54,512.03 484.11,497.28 C487.31,478.92 503.50,470.14 534.36,470.03 L 543.23 470.00 L 542.84 463.14 C542.16,451.21 536.31,446.37 523.52,447.18 C516.06,447.65 510.87,450.96 508.86,456.50 L 507.60 460.00 L 486.00 460.00 L 486.00 457.20 C486.00,453.04 490.58,444.62 495.01,440.61 C503.84,432.64 513.93,429.59 529.56,430.19 C539.73,430.58 541.41,430.93 547.34,433.85 C554.98,437.61 561.04,443.93 563.60,450.81 C565.08,454.78 565.44,460.62 565.96,489.00 C566.46,516.33 566.87,523.30 568.19,526.82 C569.43,530.11 569.52,531.25 568.59,531.60 C567.92,531.86 562.67,531.94 556.93,531.79 L 546.50 531.50 L 545.14 527.21 L 543.79 522.93 L 540.64 525.32 C533.22,530.97 529.02,532.37 518.50,532.73 C509.65,533.03 507.82,532.78 502.58,530.58 ZM 321.76 531.06 C301.49,524.58 290.03,507.05 290.03,482.50 C290.03,459.73 299.56,442.24 316.48,433.93 C323.30,430.58 323.74,430.50 335.98,430.50 C347.42,430.50 348.99,430.73 354.12,433.14 C369.68,440.43 376.80,453.42 377.74,476.25 L 378.27 489.00 L 345.63 489.00 C321.56,489.00 314.22,488.64 313.07,491.13 C312.44,492.50 313.67,494.72 315.02,498.33 C319.00,508.96 327.64,514.94 339.07,514.98 C347.72,515.01 353.92,512.77 359.75,507.54 L 364.51 503.26 L 370.42 508.63 C376.17,513.86 376.29,514.08 374.93,516.63 C371.94,522.21 359.97,529.85 350.96,531.92 C343.69,533.60 328.28,533.14 321.76,531.06 ZM 682.75 531.92 C676.34,530.40 666.96,525.05 661.95,520.05 C652.70,510.79 648.57,498.95 648.69,482.00 C648.82,464.82 652.87,453.25 662.23,443.36 C671.83,433.20 681.49,429.53 696.89,430.19 C709.28,430.72 716.66,433.83 724.03,441.62 C732.52,450.61 735.93,460.71 736.28,478.00 L 736.50 488.50 L 703.78 488.76 L 671.06 489.03 L 671.66 492.26 C673.52,502.25 681.11,511.82 688.88,513.98 C699.66,516.98 711.49,514.12 719.46,506.61 L 723.38 502.90 L 729.32 508.84 L 735.25 514.77 L 730.93 519.46 C722.29,528.84 711.37,533.06 696.16,532.90 C690.85,532.84 684.81,532.40 682.75,531.92 ZM 419.13 529.79 C416.55,522.86 385.00,432.05 385.00,431.57 C385.00,431.26 390.16,431.00 396.46,431.00 L 407.92 431.00 L 409.84 437.25 C410.90,440.69 415.71,456.67 420.54,472.76 C425.36,488.86 429.48,501.85 429.69,501.65 C429.89,501.44 434.71,485.57 440.40,466.39 L 450.73 431.50 L 462.44 431.22 C473.29,430.96 474.11,431.07 473.59,432.72 C473.28,433.70 465.44,456.33 456.18,483.00 L 439.34 531.50 L 429.66 531.79 C420.37,532.06 419.94,531.98 419.13,529.79 ZM 608.49 531.19 C606.29,530.16 603.04,527.67 601.28,525.67 C595.53,519.11 595.00,515.28 595.00,479.86 L 595.00 448.08 L 586.90 447.79 L 578.79 447.50 L 578.79 431.50 L 586.90 431.21 L 595.00 430.92 L 595.00 407.00 L 617.00 407.00 L 617.00 431.00 L 635.00 431.00 L 635.00 447.92 L 617.50 448.50 L 617.50 477.50 C617.50,493.45 617.85,507.77 618.29,509.32 C619.38,513.23 624.70,515.37 631.14,514.48 L 636.00 513.81 L 636.00 522.35 C636.00,528.09 635.59,531.14 634.75,531.67 C634.06,532.11 628.78,532.60 623.00,532.76 C614.38,533.01 611.78,532.73 608.49,531.19 ZM 247.00 389.00 L 269.00 389.00 L 269.00 532.00 L 247.00 532.00 L 247.00 389.00 ZM 484.00 580.00 L 495.95 580.00 C502.52,580.00 510.18,580.49 512.97,581.09 C536.93,586.23 541.33,619.73 519.57,631.31 C516.00,633.21 513.57,633.52 499.75,633.82 L 484.00 634.18 L 484.00 580.00 ZM 517.53 627.96 C533.78,619.65 533.86,595.29 517.65,586.75 C514.17,584.92 511.46,584.50 500.75,584.18 L 488.00 583.80 L 488.00 631.21 L 500.28 630.85 C511.05,630.54 513.17,630.19 517.53,627.96 ZM 773.45 422.73 C773.18,422.02 773.08,411.79 773.23,399.98 L 773.50 378.50 L 796.50 378.50 C818.74,378.50 819.51,378.57 819.77,380.50 C819.96,381.96 814.21,388.14 798.60,403.25 C786.81,414.66 776.44,424.00 775.55,424.00 C774.66,424.00 773.72,423.43 773.45,422.73 ZM 169.17 633.15 C169.35,632.68 174.90,620.53 181.50,606.16 C193.40,580.25 195.24,577.41 197.67,581.25 C198.58,582.68 219.73,628.35 221.07,631.75 C221.81,633.63 221.62,634.00 219.92,634.00 C218.36,634.00 217.09,632.25 214.47,626.50 L 211.05 619.00 L 179.89 619.00 L 176.47 626.50 C173.79,632.38 172.60,634.00 170.94,634.00 C169.78,634.00 168.98,633.62 169.17,633.15 ZM 373.00 633.40 C373.00,633.08 378.46,620.93 385.14,606.40 C398.81,576.67 399.34,576.05 403.45,585.25 C404.74,588.14 410.31,600.29 415.82,612.25 C425.12,632.44 425.67,634.00 423.60,634.00 C421.77,634.00 420.75,632.61 418.07,626.50 L 414.77 619.00 L 383.50 619.00 L 380.13 626.50 C377.67,631.97 376.25,634.00 374.88,634.00 C373.85,634.00 373.00,633.73 373.00,633.40 ZM 530.35 513.78 C532.59,513.10 536.36,510.71 538.71,508.45 L 543.00 504.34 L 543.00 484.00 L 538.75 484.01 C529.29,484.02 517.80,485.96 513.78,488.21 C506.63,492.22 504.05,500.68 507.75,507.92 C511.02,514.31 520.43,516.75 530.35,513.78 ZM 355.64 467.41 C353.64,452.78 343.91,445.73 329.46,448.44 C323.70,449.52 317.59,456.34 315.07,464.51 C313.93,468.19 313.00,471.39 313.00,471.61 C313.00,471.82 322.74,472.00 334.64,472.00 L 356.27 472.00 ZM 714.00 468.63 C714.00,463.81 711.37,457.01 708.21,453.64 C704.46,449.65 700.08,448.00 693.23,448.00 C685.11,448.00 679.26,451.73 675.59,459.23 C674.12,462.22 672.66,466.32 672.33,468.33 L 671.74 472.00 L 714.00 472.00 ZM 695.00 606.93 C695.00,581.69 695.12,579.88 696.75,580.19 C697.81,580.40 702.92,588.15 709.80,600.01 C716.02,610.73 721.43,620.06 721.83,620.74 C722.28,621.50 727.17,614.01 734.58,601.24 C741.73,588.90 747.28,580.38 748.29,580.18 C749.87,579.88 750.00,581.95 750.00,606.93 C750.00,633.25 749.94,634.00 748.02,634.00 C746.11,634.00 746.03,633.17 745.77,611.58 L 745.50 589.16 L 734.54 608.11 C728.04,619.35 723.05,626.95 722.27,626.78 C721.56,626.63 716.03,617.96 709.98,607.53 L 699.00 588.56 L 699.00 611.28 C699.00,633.33 698.94,634.00 697.00,634.00 C695.05,634.00 695.00,633.33 695.00,606.93 ZM 595.23 607.25 L 595.50 580.50 L 613.49 580.50 C629.82,580.50 631.50,580.66 631.81,582.25 C632.12,583.86 630.82,584.00 615.57,584.00 L 599.00 584.00 L 599.00 605.00 L 613.50 605.00 C627.33,605.00 628.00,605.09 628.00,607.00 C628.00,608.91 627.33,609.00 613.50,609.00 L 599.00 609.00 L 599.00 631.00 L 616.00 631.00 C630.44,631.00 633.00,631.23 633.00,632.50 C633.00,633.78 630.22,634.00 613.98,634.00 L 594.97 634.00 ZM 292.02 633.11 C284.39,630.38 277.72,623.29 275.45,615.49 C271.20,600.87 278.22,586.90 292.57,581.42 C299.15,578.91 310.33,579.83 316.39,583.39 C321.26,586.24 321.69,586.91 319.86,588.74 C319.00,589.60 317.90,589.26 315.45,587.40 C308.87,582.38 296.00,582.56 288.51,587.79 C274.43,597.63 274.85,618.45 289.32,627.39 C297.22,632.28 308.35,632.29 315.54,627.41 C318.08,625.69 319.60,625.20 320.29,625.89 C321.70,627.30 319.60,629.66 314.73,632.14 C308.92,635.10 298.82,635.54 292.02,633.11 ZM 412.71 614.75 C409.90,607.78 399.55,586.00 399.05,586.00 C398.46,586.00 396.41,590.34 387.36,610.75 L 385.03 616.00 L 399.12 616.00 C410.00,616.00 413.10,615.71 412.71,614.75 ZM 209.00 615.18 C209.00,614.45 196.18,585.88 195.56,585.24 C195.24,584.90 181.96,614.25 181.98,615.25 C182.01,616.27 209.00,616.21 209.00,615.18 ZM 830.00 625.23 L 830.00 616.46 L 819.00 598.59 C812.95,588.76 808.00,580.56 808.00,580.36 C808.00,578.95 812.23,580.44 813.38,582.25 C814.17,583.49 818.62,590.69 823.27,598.26 L 831.73 612.03 L 841.52 596.01 C848.46,584.68 851.86,580.00 853.16,580.00 C854.17,580.00 855.00,580.21 855.00,580.46 C855.00,580.71 850.28,588.60 844.50,598.00 L 834.00 615.08 L 834.00 624.54 C834.00,633.33 833.86,634.00 832.00,634.00 C830.15,634.00 830.00,633.33 830.00,625.23 Z" fill="rgba(0,0,0,1)"/>
<path d="M 824.00 535.93 C798.08,532.86 780.36,518.39 774.52,495.54 C773.32,490.83 773.00,483.02 773.00,458.29 L 773.00 427.00 L 791.94 427.00 L 810.87 427.00 L 811.19 458.75 C811.49,489.89 811.55,490.59 813.88,495.30 C817.82,503.24 824.60,507.00 834.90,506.99 C842.98,506.99 847.95,505.29 852.12,501.11 C858.93,494.30 859.00,493.63 859.00,431.32 L 859.00 376.00 L 878.04 376.00 L 897.09 376.00 L 896.79 435.25 L 896.50 494.50 L 893.83 501.38 C885.26,523.43 867.94,534.57 839.50,536.33 C835.10,536.60 828.12,536.42 824.00,535.93 Z" fill="rgba(255,215,0,1)"/>
</g>
</svg>